<?xml version="1.0" standalone="no"?>
<svg xmlns="http://www.w3.org/2000/svg" version="1.1" xmlns:xlink="http://www.w3.org/1999/xlink" width="512" height="512" x="0" y="0" viewBox="0 0 500 500" style="enable-background:new 0 0 512 512" xml:space="preserve" class=""><g transform="matrix(-1,2.449293598294706e-16,2.449293598294706e-16,1,499.999397277832,2.842170943040401e-14)"><path fill-rule="evenodd" d="m264.568 364.589-7.604-46.363a.887.887 0 0 1 .606-.993c16.868-5.457 32.78-13.723 46.069-24.12 30.852-24.136 51.339-59.273 62.729-96.339l1.664-5.414a.89.89 0 0 1 1.413-.433l20.425 16.465a.874.874 0 0 1 .299.933l-43.371 156.168a.89.89 0 0 0 .859 1.131h54.633c4.767 0 8.667 3.9 8.667 8.667v14.992c0 4.767-3.9 8.667-8.667 8.667H277.857a.894.894 0 0 0-.892.892v58.849c0 3.478-3.795 6.324-8.433 6.324h-20.614c-4.638 0-8.433-2.846-8.433-6.324v-58.849a.894.894 0 0 0-.892-.892H114.158c-4.767 0-8.667-3.9-8.667-8.667v-14.992c0-4.767 3.9-8.667 8.667-8.667h54.634a.89.89 0 0 0 .859-1.131l-14.902-53.658c-.213-.767.618-1.41 1.306-1.011 8.556 4.956 24.161 10.919 34.605 13.867a.884.884 0 0 1 .647.922l-2.872 40.054a.889.889 0 0 0 .89.956h11.439a.891.891 0 0 0 .89-.828l3.787-52.817a.889.889 0 0 0-.831-.954c-38.915-2.56-62.148-23.62-80.392-57.044-10.763-19.717-19.262-42.428-28.916-64.545a.86.86 0 0 0-.558-.496l-47.682-14.524c-.819-.25-.849-1.401-.043-1.692l34.906-12.619a.862.862 0 0 0 .543-.559c6.27-18.96 17.455-37.733 38.33-41.343 9.58-1.656 18.936.366 27.329 4.601 21.118 10.654 31.413 32.26 44.319 50.977a.89.89 0 0 1-.483 1.362c-24.422 7.163-40.906 28.866-40.97 55.129-.115 46.661 47.004 65.906 86.943 55.236 37.615-10.049 67.637-39.813 86.133-73.128l6.677-12.026a.866.866 0 0 1 .505-.416c7.531-2.441 14.566-4.756 20.717-6.613a.891.891 0 0 1 1.109 1.122c-11.077 35.134-30.319 66.718-57.684 88.125-14.614 11.433-33.264 20.312-52.899 25.003a.89.89 0 0 0-.673 1.012l9.233 56.291c.071.435.44.748.88.748h11.755a.888.888 0 0 0 .879-1.036zm-62.217-177.593a.873.873 0 0 0-.839-.322c-24.284 3.942-37.088 23.812-37.137 43.633-.093 37.551 38.842 50.624 70.105 42.272 32.986-8.813 59.824-35.103 76.798-64.764.398-.695-.26-1.526-1.028-1.299a423.146 423.146 0 0 1-11.288 3.188c-25.217 6.721-50.947 11.545-74.647-2.389-8.476-4.984-15.1-11.769-21.964-20.319zm16.498 124.862-3.787 52.812a.889.889 0 0 0 .89.956h20.646c.553 0 .97-.49.88-1.036l-8.787-53.573a.892.892 0 0 0-.992-.74c-2.67.336-5.345.589-8.017.756a.886.886 0 0 0-.833.825zm-94.931-149.99h.843a8.975 8.975 0 0 0 0-17.95h-.843a8.975 8.975 0 0 0 0 17.95zM258.784 36.182a.886.886 0 0 0-1.12 0l-96.184 77.536a.89.89 0 0 0 .067 1.438c10.074 6.688 17.885 15.496 25.006 25.487.3.421.884.501 1.286.177l69.824-56.287a.884.884 0 0 1 1.12 0l167.059 134.67a11.197 11.197 0 0 0 15.858-1.756l9.432-11.861c3.838-4.827 3.057-11.882-1.744-15.752zm-63.611 115.917a.889.889 0 0 0-.191 1.176c3.901 6.078 7.771 12.183 12.093 17.942 6.726 8.961 14.209 18.79 24.024 24.561 20.049 11.788 43.306 6.621 64.417.994 18.846-5.023 38.107-11.978 57.109-17.605a.891.891 0 0 0 .307-1.55l-94.147-75.895a.886.886 0 0 0-1.12 0z" clip-rule="evenodd" fill="#000000" opacity="1" data-original="#000000" class=""/></g></svg>