<svg id="solid" height="512" viewBox="0 0 512 512" width="512" xmlns="http://www.w3.org/2000/svg"><path d="m107.544 384h1.142l20-20-6.343-6.343 11.314-11.314 24 24-11.314 11.314-6.343-6.343-8.686 8.686h52.686v-48h-58.456z"/><path d="m240 289.63v30.37h34.708z"/><path d="m288 310.37v-30.37h-34.708z"/><path d="m288 376v-30.37l-34.708 30.37z"/><path d="m84 400-21.6 28.8a8 8 0 0 1 -6.4 3.2h-11.89l2.166 12.992a31.966 31.966 0 0 1 53.424 3.008h44.886a55.8 55.8 0 0 1 16.281-48z"/><path d="m64 400h-12.686l-10.746 10.746.876 5.254h10.556z"/><circle cx="72" cy="464" r="16"/><path d="m240 366.37 34.708-30.37h-34.708z"/><path d="m304 310.37 34.708-30.37h-34.708z"/><path d="m304 376h34.708l-34.708-30.37z"/><path d="m352 366.37v-30.37h-34.708z"/><path d="m160 320h32a8 8 0 0 1 8 8v56a55.945 55.945 0 0 1 23.988 5.4l.012-109.4h-8a8 8 0 0 1 -8-8v-32a8 8 0 0 1 8-8h112v16h-104v16h144v-16h-24.067v-16h32.067a8 8 0 0 1 8 8v32a8 8 0 0 1 -8 8h-8v96h64v-160h-272z"/><path d="m352 289.63-34.708 30.37h34.708z"/><path d="m344 416a39.788 39.788 0 0 0 8.022 24h-56.022v16h88a40 40 0 1 0 -40-40z"/><path d="m480 328v-16h-16v16h-16v16h16v32h16v-32h16v-16z"/><circle cx="200" cy="440" r="8"/><path d="m200 400a40 40 0 1 0 40 40 40 40 0 0 0 -40-40zm0 64a24 24 0 1 1 24-24 24.027 24.027 0 0 1 -24 24z"/><path d="m288 97.376a24.119 24.119 0 0 0 -14.624 14.624h14.624z"/><path d="m318.624 128h-14.624v14.624a24.119 24.119 0 0 0 14.624-14.624z"/><path d="m304 97.376v14.624h14.624a24.119 24.119 0 0 0 -14.624-14.624z"/><path d="m299.831 48.977 88 48a7.993 7.993 0 0 1 2.51 2.145l74.445 96.778 12.59-12.59-74.6-96.976-106.776-53.39-106.779 53.39-74.6 96.976 12.59 12.59 74.445-96.778a7.993 7.993 0 0 1 2.51-2.145l29.333-16 7.662 14.046-27.852 15.192-53.309 69.306v20.479h272v-16h-248.158v-16h239.3l-44.45-57.785-82.692-45.103-38.689 21.1-7.662-14.047 42.52-23.192a8 8 0 0 1 7.662.004zm-3.831 31.023a40 40 0 1 1 -40 40 40.045 40.045 0 0 1 40-40z"/><path d="m288 142.624v-14.624h-14.624a24.119 24.119 0 0 0 14.624 14.624z"/><path d="m456 416a39.978 39.978 0 0 0 -31.978 64h-56.022v16h88a40 40 0 0 0 0-80z"/><path d="m104 416h16v16h-16z"/><path d="m335.925 480h16.075v16h-16.075z"/><path d="m72 392h-16v-38.111l-7.155-14.311 14.31-7.156 8 16a7.994 7.994 0 0 1 .845 3.578z"/></svg>