<svg id="Layer_1" enable-background="new 0 0 512 512" viewBox="0 0 512 512" xmlns="http://www.w3.org/2000/svg"><path d="m88.82 325.29v-15.52c0-3.31 2.69-6 6-6s6 2.69 6 6v15.52c0 3.31-2.69 6-6 6s-6-2.69-6-6zm6 46.92c3.31 0 6-2.69 6-6v-15.52c0-3.31-2.69-6-6-6s-6 2.69-6 6v15.52c0 3.31 2.69 6 6 6zm0 40.91c3.31 0 6-2.69 6-6v-15.52c0-3.31-2.69-6-6-6s-6 2.69-6 6v15.52c0 3.32 2.69 6 6 6zm-27.89-81.83c3.31 0 6-2.69 6-6v-15.52c0-3.31-2.69-6-6-6s-6 2.69-6 6v15.52c0 3.31 2.68 6 6 6zm0 40.92c3.31 0 6-2.69 6-6v-15.52c0-3.31-2.69-6-6-6s-6 2.69-6 6v15.52c0 3.31 2.68 6 6 6zm0 40.91c3.31 0 6-2.69 6-6v-15.52c0-3.31-2.69-6-6-6s-6 2.69-6 6v15.52c0 3.32 2.68 6 6 6zm299.07-105.93c3.31 0 6-2.69 6-6v-15.52c0-3.31-2.69-6-6-6s-6 2.69-6 6v15.52c0 3.32 2.69 6 6 6zm0 40.92c3.31 0 6-2.69 6-6v-15.51c0-3.31-2.69-6-6-6s-6 2.69-6 6v15.51c0 3.31 2.69 6 6 6zm0-163.67c3.31 0 6-2.69 6-6v-15.51c0-3.31-2.69-6-6-6s-6 2.69-6 6v15.51c0 3.31 2.69 6 6 6zm0 40.92c3.31 0 6-2.69 6-6v-15.52c0-3.31-2.69-6-6-6s-6 2.69-6 6v15.52c0 3.31 2.69 6 6 6zm0 40.92c3.31 0 6-2.69 6-6v-15.52c0-3.31-2.69-6-6-6s-6 2.69-6 6v15.52c0 3.31 2.69 6 6 6zm27.13-81.84c3.31 0 6-2.69 6-6v-15.51c0-3.31-2.69-6-6-6s-6 2.69-6 6v15.51c0 3.31 2.69 6 6 6zm0 40.92c3.31 0 6-2.69 6-6v-15.52c0-3.31-2.69-6-6-6s-6 2.69-6 6v15.52c0 3.31 2.69 6 6 6zm-190.32-111.79c3.31 0 6-2.69 6-6v-22.11c0-3.31-2.69-6-6-6s-6 2.69-6 6v22.11c0 3.31 2.69 6 6 6zm-27.07 0c3.31 0 6-2.69 6-6v-22.11c0-3.31-2.69-6-6-6s-6 2.69-6 6v22.11c0 3.31 2.68 6 6 6zm321.26 339.18c0 3.31-2.69 6-6 6h-152.28c-.02 0-.03 0-.05 0h-298.17c-.01 0-.02 0-.02 0s-.02 0-.02 0h-19.46c-3.31 0-6-2.69-6-6s2.69-6 6-6h13.48v-157.52c0-3.31 2.69-6 6-6h7.43v-21.08c0-3.31 2.69-6 6-6h41.54c3.31 0 6 2.69 6 6v21.08h13.99v-176.89c0-3.31 2.69-6 6-6h20.62v-41.09c0-3.31 2.69-6 6-6h82.46c3.31 0 6 2.69 6 6v41.09h20.62c3.31 0 6 2.69 6 6v136.67h21.58v-21.29c0-3.31 2.69-6 6-6h8.1v-8.83c0-3.31 2.69-6 6-6s6 2.69 6 6v8.83h8.1c3.31 0 6 2.69 6 6v21.29h7.8v-108.89c0-3.31 2.69-6 6-6h14.3v-22.12c0-3.31 2.69-6 6-6h41.09c3.31 0 6 2.69 6 6v22.12h14.3c3.31 0 6 2.69 6 6v115.39c10.52 1.74 19.76 7.99 26.18 16.96.97-.08 1.94-.12 2.92-.12 22.88 0 41.49 21.19 41.49 47.23 0 23.72-15.45 43.41-35.49 46.73v12.79c0 1.46-.53 2.88-1.5 3.97l-33.59 38.04v31.64h64.58c3.31 0 6 2.69 6 6zm-92.58-71.36c0-12.81-7.8-23.64-17.03-23.64s-17.03 10.82-17.03 23.64 7.8 23.64 17.03 23.64 17.03-10.82 17.03-23.64zm-11.03 65.36h21.03v-52.37c-3.53 11.03-11.4 19.39-21.03 21.88zm56.12-75.92v-10.54c-8.75-1.45-16.83-6.02-23.1-13.05v49.74zm9.38-92.24c1.94 5.46 3.02 11.41 3.02 17.65 0 19.76-10.72 36.71-25.87 43.74 5.34 5.62 12.25 8.82 19.48 8.82 16.26 0 29.49-15.8 29.49-35.23-.01-18.05-11.45-32.98-26.12-34.98zm-38.48-17.58c-16.26 0-29.49 15.8-29.49 35.23s13.23 35.23 29.49 35.23 29.49-15.8 29.49-35.23-13.23-35.23-29.49-35.23zm-55.39-132.89h29.09v-16.12h-29.09zm-20.31 12v281.86c2.83 4.76 4.46 10.31 4.46 16.24 0 2.91-.41 5.77-1.17 8.53h33.39v-30.49c-13.14-3.4-23.03-17.74-23.03-34.87 0-19.65 13.02-35.64 29.03-35.64 12.28 0 22.79 9.41 27.03 22.65v-25.44c-20.04-3.32-35.49-23.01-35.49-46.73s15.45-43.41 35.49-46.73v-109.38zm-9.46 306.63c1.26-2.65 1.92-5.55 1.92-8.53 0-10.97-8.93-19.9-19.9-19.9-7.58 0-14.41 4.22-17.81 11.01-1.28 2.56-4.2 3.86-6.96 3.1-2.68-.74-5.59-.66-8.2.23-1.54.52-3.23.4-4.67-.34-1.45-.74-2.53-2.04-3-3.6-4.18-13.85-17.22-23.52-31.7-23.52-12.45 0-23.74 6.88-29.45 17.96-.92 1.78-2.66 2.98-4.64 3.21-1.98.24-3.95-.54-5.25-2.06-3.21-3.76-7.89-5.92-12.83-5.92-5.29 0-10.17 2.41-13.4 6.62-1.27 1.65-3.3 2.53-5.38 2.32-2.07-.21-3.89-1.49-4.79-3.37-5.49-11.4-17.21-18.76-29.85-18.76-14.63 0-27.36 9.39-31.66 23.36-.93 3.02-4.03 4.8-7.11 4.08-9.55-2.24-22.08-1.2-32.68 2.73-4.78 1.77-12.2 5.31-17.27 11.39h284.63zm-165.56-123.79h-42.42v71.86c3.85-1.05 7.9-1.62 12.06-1.62 11.37 0 22.17 4.38 30.36 11.82v-27.84h-22.4c-3.31 0-6-2.69-6-6s2.69-6 6-6h22.4v-15.25h-22.4c-3.31 0-6-2.69-6-6s2.69-6 6-6h22.4zm163.02-67.95h-151.02v153.55c3.45-1.43 7.19-2.18 11.06-2.18 1.47 0 2.93.11 4.36.33v-131.83c0-3.31 2.69-6 6-6s6 2.69 6 6v136c4.07-5.33 9.23-9.63 15.08-12.65v-123.35c0-3.31 2.69-6 6-6s6 2.69 6 6v119.18c2.84-.56 5.76-.86 8.74-.86 2.14 0 4.26.16 6.34.46v-118.78c0-3.31 2.69-6 6-6s6 2.69 6 6v122.28c5.71 2.57 10.86 6.3 15.08 10.92v-133.2c0-3.31 2.69-6 6-6s6 2.69 6 6v145.1c.24.01.49.03.73.05 3.6-5.2 8.6-9.14 14.35-11.43v-133.72c0-3.31 2.69-6 6-6s6 2.69 6 6v131.44c5.55.02 10.77 1.47 15.31 4v-155.31zm-36-12h16.21v-15.29h-16.21zm-169.28 40.22h15.24v-150.62c0-3.31 2.69-6 6-6s6 2.69 6 6v150.62h15.03v-34.22c0-.25.02-.49.05-.73v-115.67c0-3.31 2.69-6 6-6s6 2.69 6 6v110.4h15.08v-110.4c0-3.31 2.69-6 6-6s6 2.69 6 6v110.4h15.08v-110.4c0-3.31 2.69-6 6-6s6 2.69 6 6v110.4h15.24v-130.67h-20.65c-3.31 0-6-2.69-6-6v-41.09h-70.46v41.09c0 3.31-2.69 6-6 6h-20.62v170.89zm-67.53 0h29.54v-15.08h-29.54zm-13.42 12v138.73c4.69-4 10.49-7.35 17.24-9.85 11.06-4.09 23.52-5.54 34.36-4.11 3.69-8.37 9.73-15.23 17.19-19.92v-83.13c0-3.31 2.69-6 6-6h48.42v-15.73h-123.21z"/></svg>