<?xml version="1.0" encoding="iso-8859-1"?>
<!-- Generator: Adobe Illustrator 19.0.0, SVG Export Plug-In . SVG Version: 6.00 Build 0)  -->
<svg version="1.1" id="Capa_1" xmlns="http://www.w3.org/2000/svg" xmlns:xlink="http://www.w3.org/1999/xlink" x="0px" y="0px"
	 viewBox="0 0 511.998 511.998" style="enable-background:new 0 0 511.998 511.998;" xml:space="preserve">
<g>
	<g>
		<path d="M504.501,436.875c-11.767,0-17.968,2.397-23.439,4.513c-4.862,1.88-9.062,3.503-18.03,3.503
			c-2.231,0-4.165-0.101-5.889-0.281c-27.115-30.521-65.539-53.51-109.941-66.809c3.334-73.502,13.848-119.29,20.404-141.456
			l52.917,46.242c1.389,1.213,3.148,1.853,4.936,1.853c0.848,0,1.702-0.144,2.526-0.439c2.56-0.916,4.423-3.145,4.871-5.827
			c0.249-1.49,5.852-36.73-15.156-56.371c-3.177-2.97-6.76-5.391-10.722-7.285c6.33,0.336,13.26,1.472,20.74,3.808
			c2.923,0.914,6.107-0.043,8.044-2.415c1.937-2.372,2.237-5.683,0.759-8.365c-0.175-0.317-4.367-7.863-11.235-15.318
			c-9.832-10.671-20.532-16.069-30.929-15.608c-9.078,0.402-17.51,5.093-25.226,13.983c-1.447-11.866-5.858-20.616-13.254-26.101
			c-19.463-14.434-50.545,1.042-51.858,1.708c-2.722,1.38-4.337,4.272-4.083,7.313c0.254,3.041,2.325,5.625,5.239,6.535
			c7.503,2.343,13.881,5.369,19.315,8.716c-4.373-0.686-8.724-0.696-13.046-0.015c-28.171,4.436-43.023,36.624-43.642,37.992
			c-1.113,2.462-0.816,5.331,0.777,7.513c1.422,1.947,3.679,3.076,6.056,3.076c0.287,0,0.575-0.016,0.864-0.05l59.886-6.941
			c-2.556,4.733-5.388,10.488-8.317,17.352c-1.626,3.81,0.144,8.216,3.954,9.842c0.96,0.41,1.959,0.604,2.941,0.604
			c2.914,0,5.686-1.708,6.901-4.558c5.213-12.213,10.029-20.521,13.202-25.405l0.289-0.033c-6.722,21.348-18.2,67.947-21.979,145.62
			c-5.81-1.418-11.707-2.674-17.68-3.766c2.922-34.127,8.667-64.971,17.106-91.743c1.246-3.95-0.947-8.163-4.898-9.408
			c-3.952-1.246-8.163,0.948-9.408,4.898c-8.681,27.537-14.612,59.099-17.657,93.9c-14.293-1.919-28.949-2.924-43.838-2.924
			c-0.378,0-0.754,0.012-1.132,0.013c-6.799-67.885-18.602-130.193-35.133-185.245c-1.191-3.967-5.375-6.217-9.34-5.026
			c-3.967,1.191-6.218,5.373-5.026,9.34c16.166,53.836,27.742,114.816,34.462,181.316c-11,0.533-21.838,1.62-32.468,3.211
			c-0.824-132.588-23.582-224.771-30.448-249.619c0.504-1.036,1.02-2.056,1.545-3.063c0.719,0.327,1.439,0.663,2.159,1.008
			c3.523,7.548,9.505,21.333,16.418,41.305c1.074,3.102,3.979,5.049,7.087,5.049c0.814,0,1.642-0.133,2.454-0.415
			c3.914-1.355,5.989-5.626,4.634-9.541c-3.155-9.114-6.113-16.963-8.756-23.581c26.04,17.783,47.729,40.615,48.026,40.929
			c1.425,1.51,3.403,2.354,5.456,2.354c0.269,0,0.539-0.015,0.809-0.044c2.334-0.253,4.416-1.584,5.624-3.598
			c0.64-1.068,14.032-23.969,5.95-52.918l43.596,1.19c0.068,0.002,0.137,0.003,0.205,0.003c2.585,0,4.995-1.333,6.366-3.535
			c1.408-2.261,1.511-5.098,0.271-7.456c-0.86-1.635-21.518-40.123-60.881-45.901c-13.858-2.035-28.091,0.253-42.599,6.801
			c11.792-9.482,27.401-18.831,47.846-25.868c2.998-1.031,5.022-3.836,5.059-7.006c0.036-3.17-1.925-6.02-4.898-7.12
			c-2.114-0.781-52.085-18.866-80.399,5.133c-0.846,0.718-1.655,1.47-2.442,2.244c-9.228-10.748-22.23-15.394-33.782-11.417
			c-11.518,3.964-18.927,15.647-19.596,29.79c-1.097-0.125-2.198-0.221-3.308-0.266c-37.087-1.474-65.342,43.521-66.527,45.438
			c-1.667,2.697-1.458,6.15,0.521,8.626c1.979,2.476,5.3,3.44,8.299,2.409c20.27-6.977,38.249-9.201,53.36-8.991
			c-15.341,3.783-27.877,10.716-37.49,20.789c-27.468,28.781-20.062,71.829-19.733,73.648c0.474,2.621,2.302,4.794,4.803,5.709
			c0.838,0.307,1.71,0.457,2.577,0.457c1.717,0,3.412-0.59,4.776-1.717l33.629-27.77c11.447,27.791,36.097,37.599,37.259,38.046
			c0.871,0.335,1.785,0.501,2.694,0.501c1.38,0,2.751-0.381,3.954-1.127c1.996-1.238,3.296-3.339,3.514-5.678
			c0.039-0.422,2.965-30.718,12.176-60.302c9.195,39.184,24.362,120.021,24.8,228.118c-55.988,11.172-104.912,36.968-137.5,73.641
			c-1.754,0.188-3.725,0.295-6.009,0.295c-8.938,0-13.124-1.623-17.971-3.501c-5.46-2.117-11.648-4.515-23.392-4.515
			c-4.142,0-7.5,3.358-7.5,7.5c0,4.142,3.358,7.5,7.5,7.5c8.938,0,13.124,1.623,17.971,3.501c5.46,2.117,11.648,4.515,23.392,4.515
			c11.752,0,17.945-2.398,23.41-4.514c4.853-1.879,9.043-3.502,17.993-3.502c8.942,0,13.13,1.623,17.979,3.501
			c5.461,2.116,11.651,4.515,23.398,4.515c11.751,0,17.944-2.398,23.408-4.514c4.852-1.879,9.042-3.502,17.99-3.502
			c8.953,0,13.146,1.623,18,3.502c5.466,2.116,11.661,4.514,23.416,4.514s17.95-2.398,23.415-4.514
			c4.854-1.879,9.047-3.502,18-3.502s13.146,1.623,18,3.502c5.466,2.116,11.661,4.514,23.416,4.514
			c11.757,0,17.954-2.398,23.42-4.514c4.856-1.879,9.05-3.502,18.007-3.502c8.95,0,13.141,1.623,17.994,3.502
			c5.464,2.116,11.658,4.514,23.411,4.514c11.76,0,17.958-2.398,23.426-4.513c4.858-1.88,9.054-3.503,18.014-3.503
			c8.968,0,13.168,1.624,18.03,3.503c5.471,2.115,11.672,4.513,23.439,4.513c11.767,0,17.968-2.397,23.439-4.513
			c4.862-1.88,9.062-3.503,18.03-3.503c4.142,0,7.5-3.358,7.5-7.5C511.998,440.229,508.643,436.875,504.501,436.875z
			 M394.999,191.607c0.203-0.009,0.404-0.014,0.606-0.014c5.72,0,11.386,3.665,16.166,8.23c-13.227-1.274-24.522,0.477-33.45,3.141
			C383.822,195.726,389.452,191.861,394.999,191.607z M407.415,232.725c8.014,7.461,10.54,18.982,11.135,28.219l-41.437-36.209
			C390.412,223.683,400.574,226.354,407.415,232.725z M289.19,220.605c5.587-7.268,14.004-15.361,24.586-17.027
			c1.338-0.211,2.69-0.316,4.058-0.316c8.104,0,16.713,3.698,25.726,11.041L289.19,220.605z M328.714,173.855
			c6.637-1.063,13.516-0.81,18.246,2.71c4.506,3.353,7.066,9.745,7.637,18.859C348.69,188.157,340.329,180.31,328.714,173.855z
			 M253.377,152.095c-4.57-4.406-10.873-10.247-18.341-16.551c-9.698-8.186-19.021-15.189-27.926-21.008l45.314,1.237
			C257.896,130.574,255.938,143.748,253.377,152.095z M255.601,75.333c19.593,2.837,33.923,16.518,42.072,26.669L193.65,99.164
			C215.564,80.555,236.353,72.546,255.601,75.333z M192.564,43.909c7.97-6.769,18.907-8.911,29.567-8.911
			c5.017,0,9.973,0.475,14.525,1.165c-29.105,14.198-46.689,32.538-56.748,46.524C179.293,64.587,183.524,51.587,192.564,43.909z
			 M146.114,166.151c-2.003,9.55-3.375,18.021-4.265,24.303c-7.156-5.022-16.821-14.218-21.607-29.186l34.953-28.864
			C151.757,142.472,148.72,153.73,146.114,166.151z M76.103,178.264c0.174-13.02,3.049-32.619,16.744-46.912
			c12.421-12.964,31.535-19.484,56.994-19.484c2.123,0,4.291,0.045,6.501,0.136L76.103,178.264z M117.855,85.136
			c-10.298,0-21.731,1.042-34.169,3.682c0.932-0.982,1.903-1.971,2.911-2.956c8.77-8.571,22.224-18.667,36.593-18.074
			c11.85,0.487,23.186,8.129,33.841,22.773C146.991,87.627,133.777,85.136,117.855,85.136z M164.937,76.36
			c-7.187-8.673-14.808-14.975-22.831-18.87c-0.709-9.597,3.098-17.85,9.441-20.033c6.365-2.191,14.416,1.971,19.768,9.984
			C167.391,55.448,165.263,65.103,164.937,76.36z M421.56,436.875c-11.758,0-17.955,2.398-23.424,4.513
			c-4.858,1.879-9.054,3.503-18.014,3.503c-8.95,0-13.141-1.623-17.995-3.502c-5.464-2.116-11.658-4.514-23.41-4.514
			c-11.758,0-17.954,2.398-23.421,4.514c-4.856,1.879-9.05,3.502-18.006,3.502c-8.953,0-13.146-1.623-18.001-3.502
			c-5.466-2.116-11.661-4.514-23.416-4.514s-17.95,2.398-23.416,4.514c-4.854,1.879-9.047,3.502-18,3.502s-13.146-1.623-18-3.502
			c-5.466-2.116-11.661-4.514-23.416-4.514c-11.751,0-17.943,2.398-23.407,4.514c-4.852,1.879-9.042,3.502-17.991,3.502
			c-8.942,0-13.13-1.623-17.979-3.501c-5.462-2.116-11.652-4.515-23.399-4.515c-2.286,0-4.355,0.093-6.256,0.255
			c16.99-14.426,37.423-26.72,60.317-36.133c33.843-13.913,72.459-21.267,111.673-21.267c39.22,0,77.842,7.356,111.688,21.273
			c22.909,9.419,43.374,21.712,60.374,36.149C426.092,436.977,423.946,436.875,421.56,436.875z"/>
	</g>
</g>
<g>
	<g>
		<path d="M421.563,468.939c-11.76,0-17.958,2.398-23.426,4.513c-4.858,1.88-9.054,3.503-18.014,3.503
			c-8.95,0-13.142-1.623-17.995-3.502c-5.464-2.116-11.658-4.514-23.41-4.514c-11.758,0-17.954,2.398-23.421,4.514
			c-4.856,1.879-9.05,3.502-18.006,3.502c-8.954,0-13.146-1.623-18.001-3.502c-5.466-2.116-11.661-4.514-23.416-4.514
			c-11.755,0-17.95,2.398-23.416,4.514c-4.854,1.879-9.047,3.502-18,3.502s-13.146-1.623-18-3.502
			c-5.466-2.116-11.661-4.514-23.416-4.514c-11.751,0-17.943,2.398-23.407,4.514c-4.852,1.879-9.042,3.502-17.991,3.502
			c-8.942,0-13.13-1.623-17.979-3.501c-5.461-2.116-11.652-4.515-23.398-4.515c-4.142,0-7.5,3.358-7.5,7.5
			c0,4.142,3.358,7.5,7.5,7.5c8.942,0,13.13,1.623,17.979,3.501c5.461,2.116,11.651,4.515,23.398,4.515
			c11.751,0,17.944-2.398,23.408-4.514c4.852-1.879,9.042-3.502,17.99-3.502c8.953,0,13.146,1.623,18,3.502
			c5.466,2.116,11.661,4.514,23.416,4.514s17.95-2.398,23.415-4.514c4.855-1.879,9.047-3.502,18-3.502s13.146,1.623,18,3.502
			c5.466,2.116,11.661,4.514,23.416,4.514c11.757,0,17.954-2.398,23.42-4.514c4.856-1.879,9.05-3.502,18.007-3.502
			c8.95,0,13.141,1.623,17.994,3.502c5.464,2.116,11.658,4.514,23.411,4.514c11.76,0,17.958-2.398,23.426-4.513
			c4.858-1.88,9.054-3.503,18.014-3.503c4.142,0,7.5-3.358,7.5-7.5C429.061,472.297,425.705,468.939,421.563,468.939z"/>
	</g>
</g>
<g>
</g>
<g>
</g>
<g>
</g>
<g>
</g>
<g>
</g>
<g>
</g>
<g>
</g>
<g>
</g>
<g>
</g>
<g>
</g>
<g>
</g>
<g>
</g>
<g>
</g>
<g>
</g>
<g>
</g>
</svg>
